<svg width="154" height="41" viewBox="0 0 154 41" fill="none"
    xmlns="http://www.w3.org/2000/svg" class="sc-bdfBwQ idFxnK desktop-icon" color="text">
    <path d="M5.6474 18.0578V29.3018L14.467 40.6424L14.3754 18.0578H5.6474ZM11.3088 31.693L8.72281 28.3596V21.1024H11.3088V31.693Z" fill="black"></path>
    <path d="M14.5907 41L5.52521 29.343V17.9368H14.4965V18.0574L14.5907 41ZM5.77004 29.2605L14.3433 40.2846L14.2536 18.179H5.76961L5.77004 29.2605ZM11.4314 32.0493L8.6004 28.4001V20.9814H11.431L11.4314 32.0493ZM8.84436 28.3183L11.1857 31.3365V21.2225H8.84436V28.3183Z" fill="white"></path>
    <path d="M20.7962 26.0375L24.4206 22.4493L24.4137 22.4425V18.1373H21.4433V21.2379L18.7874 23.8674V18.1373H15.817V40.6424L18.7874 36.8928V28.2074L20.3926 29.7966L20.3513 29.8492V34.8821L24.3473 29.8203L20.7962 26.0375V26.0375Z" fill="black"></path>
    <path d="M15.6946 40.993V18.0163H18.9096V23.5752L21.3211 21.1878V18.0163H24.5361V22.3923L24.5938 22.4491L20.9661 26.0405L24.5079 29.8137L20.2288 35.2335V29.8066L18.9088 28.4998V36.9339L15.6946 40.993ZM15.9392 18.2582V40.2918L18.665 36.8511V27.9151L20.5554 29.7866L20.4735 29.891V34.5306L24.1867 29.8271L20.6264 26.0343L24.2913 22.4059V18.2582H21.5655V21.2882L18.665 24.1596V18.2582H15.9392Z" fill="white"></path>
    <path d="M5.85718 17.549V28.7931L14.4197 39.8294V17.549H5.85718ZM11.5186 31.1842L8.93237 27.8508V20.5936H11.5186V31.1842Z" fill="white"></path>
    <path d="M24.1201 28.982L20.5866 25.4839L24.2111 21.8958L24.2042 21.889V17.5837H21.2336V20.6844L18.5777 23.3138V17.5837H15.6072V39.7847L18.5777 36.0351V27.6538L20.183 29.2431L20.1415 29.2957V34.061L24.1306 29.0082L24.1388 29.0005L24.1377 28.9992L24.1394 28.9971L24.1201 28.982V28.982Z" fill="white"></path>
    <path d="M5.50818 16.3878L5.63081 17.1597C11.8259 16.0327 18.1766 16.0327 24.3718 17.1597L24.4944 16.3878C18.2182 15.2461 11.7844 15.2461 5.50818 16.3878V16.3878Z" fill="black"></path>
    <path d="M24.4731 17.3009L24.3498 17.2796C18.1694 16.1526 11.8331 16.1526 5.65276 17.2796L5.52948 17.3019L5.36877 16.2909L5.48603 16.2696C11.7766 15.1224 18.2259 15.1224 24.5165 16.2696L24.6338 16.2909L24.4731 17.3009ZM14.9999 16.1908C18.1086 16.1916 21.211 16.4685 24.2698 17.018L24.3545 16.4856C18.1694 15.3719 11.8321 15.3719 5.64695 16.4856L5.7315 17.018C8.78976 16.4685 11.8916 16.1916 14.9999 16.1908V16.1908Z" fill="white"></path>
    <path d="M29.6646 5.41639C29.0766 5.66402 28.4957 5.92009 27.922 6.18462C27.9337 6.64353 27.9438 7.10237 27.9521 7.56113C27.2056 7.92704 25.5527 8.65204 23.7205 8.9155C23.1085 8.05547 22.3832 6.83656 21.9349 5.40127C22.2748 4.98566 22.6202 4.57304 22.971 4.1634C22.6862 3.61092 22.3938 3.06029 22.0939 2.5115C21.6947 2.98262 21.3028 3.45729 20.9181 3.93551C21.1889 4.42509 21.4537 4.91637 21.7124 5.40936L21.7109 5.41191C21.3953 5.95055 20.5853 7.20928 19.3444 8.2676C18.0138 7.58456 16.6857 6.34457 15.4237 4.22538C15.7887 3.68355 16.1621 3.14506 16.5437 2.6099C16.0393 1.83166 15.5184 1.05959 14.981 0.293701C14.4437 1.05959 13.923 1.83194 13.4188 2.61075C13.8184 3.17019 14.209 3.73346 14.5905 4.30057C13.4718 6.39611 12.2522 7.64569 10.9977 8.34726C9.64381 7.22121 8.78175 5.83405 8.49218 5.32118V5.32012C8.74776 4.83736 9.00923 4.35594 9.27657 3.87588C8.89291 3.39652 8.50222 2.92086 8.1045 2.44888C7.8033 2.99668 7.50928 3.54639 7.22243 4.09802C7.58687 4.52583 7.94544 4.95691 8.29812 5.39126C7.82245 6.89258 7.04064 8.156 6.40727 9.01624C4.5304 8.70613 2.81144 7.93449 2.04856 7.55453C2.05674 7.09818 2.06678 6.64161 2.07868 6.18483C1.50498 5.92045 0.924105 5.66437 0.33606 5.4166C0.919515 6.26513 1.48777 7.1209 2.04082 7.98391C3.56213 10.4153 4.96771 12.895 6.25753 15.4228C12.0459 14.4599 17.9559 14.4599 23.7442 15.4228C25.1032 12.7625 26.5907 10.1552 28.2068 7.60096V7.59968C28.682 6.86688 29.1679 6.13911 29.6646 5.41639V5.41639ZM5.24079 12.0979C5.07814 11.5431 4.91098 10.9904 4.74382 10.4366C5.23369 10.7606 5.71409 11.0916 6.18976 11.4272L6.64887 13.0987C6.1874 12.7599 5.71646 12.4242 5.24079 12.0979ZM9.82776 11.1655C9.72019 10.6756 9.61111 10.1885 9.5029 9.69907C9.57346 9.68969 9.64424 9.68267 9.71804 9.67777C10.0924 9.97168 10.4598 10.2722 10.8247 10.5753C10.9379 11.1418 11.0502 11.7098 11.1616 12.2792C10.7251 11.9043 10.28 11.5318 9.82776 11.1655V11.1655ZM14.9988 13.415C14.6929 12.5012 14.3719 11.5904 14.0359 10.6828C14.3444 9.76431 14.6654 8.84848 14.9988 7.93535C15.3357 8.84933 15.6576 9.76552 15.9644 10.6839C15.6276 11.5925 15.3058 12.5029 14.9988 13.415ZM20.1723 11.1655C19.7205 11.5314 19.2751 11.9043 18.8384 12.2798C18.9493 11.7108 19.0616 11.1429 19.1753 10.5759C19.541 10.2728 19.9068 9.97232 20.282 9.67841C20.3549 9.68309 20.4257 9.69012 20.4971 9.6997C20.3889 10.1885 20.2807 10.6758 20.1723 11.1655V11.1655ZM24.8076 11.7855C24.3296 12.112 23.8587 12.4457 23.3948 12.7865C23.5454 12.2293 23.701 11.6721 23.8563 11.115C24.332 10.7793 24.8147 10.4481 25.3068 10.1265C25.1362 10.6782 24.9714 11.2306 24.8076 11.7855Z" fill="black"></path>
    <path d="M15.1137 7.89295L14.9986 7.58008L14.884 7.89316C14.5613 8.77747 14.236 9.70353 13.9197 10.6445L13.9064 10.6845L13.921 10.7241C14.282 11.706 14.5968 12.5984 14.8829 13.4531L14.9984 13.7983L15.115 13.4533C15.4362 12.5015 15.7516 11.6089 16.0793 10.7244L16.0939 10.6847L16.0803 10.6445C15.7523 9.66774 15.4362 8.76768 15.1137 7.89295V7.89295ZM14.9993 13.0337C14.7476 12.2928 14.4733 11.5192 14.1654 10.6809C14.4393 9.86646 14.7192 9.06415 14.9993 8.29038C15.2768 9.05243 15.5515 9.83813 15.8349 10.6809C15.5513 11.4466 15.277 12.221 14.9993 13.0337Z" fill="white"></path>
    <path d="M29.6166 5.305C29.0306 5.55218 28.4486 5.80878 27.871 6.07473L27.7983 6.10838L27.8004 6.18761C27.8114 6.61592 27.8219 7.05253 27.829 7.48681C27.0221 7.87721 25.4892 8.52702 23.7778 8.78601C23.2358 8.01586 22.5192 6.82912 22.0726 5.42811C22.3981 5.0294 22.7324 4.63112 23.065 4.24179L23.1175 4.18023L23.0805 4.10846C22.7965 3.55747 22.5009 3.00094 22.2021 2.454L22.116 2.29724L22.0003 2.43377C21.6036 2.90233 21.2075 3.38197 20.8228 3.86076L20.7721 3.92359L20.8112 3.9943C21.0694 4.45903 21.3243 4.93377 21.573 5.4066C21.2621 5.92862 20.4861 7.116 19.3274 8.12257C17.929 7.38266 16.6973 6.10774 15.5681 4.22943C15.9196 3.70869 16.2813 3.18773 16.6438 2.67976L16.6913 2.61331L16.6468 2.54473C16.1434 1.76798 15.6167 0.987394 15.0814 0.224912L14.981 0.0817871L14.8807 0.224912C14.3472 0.985691 13.8207 1.76649 13.3162 2.54644L13.2717 2.61502L13.3192 2.68019C13.7011 3.21478 14.0808 3.76193 14.4485 4.30717C13.4438 6.17078 12.3186 7.44549 11.011 8.19967C9.72663 7.11068 8.89878 5.78358 8.63028 5.31778C8.87554 4.85518 9.12833 4.39002 9.38327 3.93339L9.42264 3.86289L9.37208 3.79899C8.98681 3.31754 8.59552 2.84085 8.19829 2.36902L8.08297 2.23228L7.99692 2.38862C7.69572 2.93577 7.39819 3.49144 7.11313 4.0403L7.07591 4.11208L7.1284 4.17385C7.47499 4.58086 7.82222 4.99788 8.16107 5.41426C7.69034 6.86766 6.92832 8.09083 6.35197 8.88249C4.53684 8.57132 2.87296 7.82588 2.17118 7.48021C2.17914 7.05104 2.18882 6.61656 2.19979 6.18761L2.20173 6.10838L2.12923 6.07473C1.55502 5.81041 0.967479 5.55121 0.383592 5.305L0 5.14335L0.234501 5.48412C0.812363 6.32456 1.38506 7.18799 1.93711 8.04823L1.95518 8.07614C3.45835 10.4807 4.86923 12.9703 6.14888 15.4763L6.18954 15.5572L6.27817 15.5423C12.053 14.5807 17.9494 14.5807 23.7242 15.5423L23.813 15.5572L23.8537 15.4775C25.2149 12.8127 26.715 10.1845 28.3105 7.66614L28.3148 7.65933C28.7881 6.92837 29.2765 6.19698 29.7657 5.4854L30 5.14463L29.6166 5.305ZM1.92528 7.55219V7.57903C1.51447 6.94507 1.09643 6.31573 0.671233 5.69114C1.10151 5.87601 1.5305 6.06685 1.95324 6.26087C1.94227 6.69004 1.93302 7.1241 1.92528 7.55219V7.55219ZM21.0659 3.94808C21.3974 3.53723 21.7332 3.12992 22.0734 2.72619C22.3292 3.19689 22.582 3.67355 22.8264 4.1468C22.4938 4.53608 22.1653 4.92884 21.8411 5.32502L21.8196 5.35016C21.5737 4.88003 21.3224 4.41264 21.0659 3.94808V3.94808ZM7.36785 4.08098C7.61536 3.6056 7.86795 3.13282 8.12557 2.66273C8.46312 3.06548 8.80003 3.47675 9.12984 3.88781C8.87748 4.34189 8.62663 4.80364 8.38374 5.26368L8.37104 5.28775C8.04188 4.88308 7.70411 4.47756 7.36785 4.08098ZM23.6754 15.288C17.9317 14.3413 12.0695 14.3413 6.32594 15.288C5.04952 12.7933 3.64337 10.3157 2.14622 7.92236L2.14257 7.91555L2.13762 7.90937L1.97841 7.66188L2.00466 7.66848C2.68859 8.00819 4.45724 8.81689 6.38617 9.13552L6.46061 9.14766L6.50515 9.08738C7.10474 8.27315 7.92248 6.97756 8.41407 5.42853C8.68751 5.90434 9.56011 7.30854 10.9202 8.4397L10.9848 8.49358L11.0586 8.45248C12.4544 7.67211 13.6454 6.33222 14.6998 4.35659L14.7338 4.29269L14.6935 4.23284C14.3278 3.68846 13.9487 3.14173 13.5675 2.60671C14.0253 1.90195 14.5003 1.19612 14.9823 0.505625C15.4655 1.19761 15.9409 1.90301 16.3976 2.60607C16.0354 3.1151 15.6744 3.6367 15.3232 4.15745L15.2802 4.22134L15.3192 4.28694C16.5024 6.27429 17.8014 7.6114 19.2889 8.37623L19.3623 8.41393L19.4251 8.36047C20.6897 7.28192 21.5195 5.9825 21.8176 5.4739L21.8256 5.45984C22.1956 6.63722 22.8152 7.85612 23.6205 8.98664L23.6635 9.04734L23.738 9.03669C25.5619 8.7743 27.1933 8.06932 28.0044 7.67168L28.024 7.66209C26.4698 10.1227 25.0075 12.6874 23.676 15.288H23.6754ZM28.104 7.53537L28.0997 7.54218C28.0915 7.55539 28.0831 7.56859 28.0747 7.58159V7.56029C28.0668 7.12729 28.0573 6.69089 28.0465 6.26109C28.4715 6.06592 28.8988 5.876 29.3286 5.69136C28.9168 6.29772 28.505 6.91623 28.1046 7.5343L28.104 7.53537Z" fill="white"></path>
    <path d="M10.9439 10.5521L10.9355 10.5095L10.9024 10.482C10.4607 10.115 10.1184 9.83753 9.7931 9.58237L9.75631 9.55341L9.70919 9.55639C9.6339 9.56129 9.56118 9.56831 9.48674 9.57769L9.35486 9.59494L9.38347 9.72273C9.43883 9.9732 9.49427 10.2234 9.54977 10.4733C9.6027 10.7117 9.65555 10.9502 9.70833 11.1889L9.71737 11.23L9.7505 11.2569C10.1825 11.6066 10.63 11.981 11.0803 12.3686L11.3479 12.5991L11.2808 12.256C11.1666 11.6696 11.0512 11.0905 10.9439 10.5521V10.5521ZM9.9381 11.0984C9.88833 10.8731 9.83813 10.6481 9.78751 10.4237C9.7419 10.2172 9.69614 10.0108 9.65025 9.80451L9.67735 9.80217C9.98178 10.0416 10.3036 10.3029 10.7111 10.6409C10.795 11.0613 10.8832 11.506 10.9725 11.9593C10.6231 11.6611 10.2761 11.3725 9.9381 11.0984V11.0984Z" fill="white"></path>
    <path d="M20.291 9.55724L20.2439 9.55426L20.2071 9.58323C19.8816 9.83881 19.5402 10.1157 19.0976 10.4829L19.0647 10.5103L19.0563 10.5529C18.93 11.1864 18.8244 11.7186 18.7194 12.2568L18.6523 12.6014L18.9197 12.371C19.3702 11.9829 19.8177 11.6089 20.2497 11.2592L20.2826 11.2324L20.2919 11.1913C20.3458 10.9465 20.3999 10.7021 20.4543 10.4582C20.5086 10.2142 20.5628 9.96986 20.6167 9.72507L20.6451 9.59728L20.5135 9.58003C20.439 9.56917 20.3661 9.56214 20.291 9.55724V9.55724ZM20.2155 10.4062C20.1643 10.6369 20.1132 10.8677 20.0621 11.0984C19.7135 11.3813 19.3683 11.6683 19.0266 11.9593C19.1077 11.5454 19.1919 11.122 19.2878 10.6409C19.6953 10.3029 20.0173 10.0416 20.3218 9.80217L20.3489 9.80452C20.3044 10.0047 20.2599 10.2053 20.2155 10.4062V10.4062Z" fill="white"></path>
    <path d="M23.7842 11.0155L23.7489 11.0405L23.7332 11.0963C23.5826 11.6396 23.4251 12.2014 23.2756 12.7543L23.1848 13.0894L23.4664 12.8828C23.9268 12.545 24.4012 12.2093 24.876 11.8852L24.9115 11.8609L24.9238 11.8196C25.0731 11.3173 25.2465 10.7333 25.4227 10.1608L25.5212 9.83966L25.2379 10.0247C24.7814 10.3233 24.3059 10.6475 23.7842 11.0155V11.0155ZM24.7013 11.7103C24.3326 11.9625 23.9643 12.2215 23.6026 12.483C23.7214 12.0492 23.8429 11.613 23.9615 11.1878C24.3605 10.9065 24.7325 10.6513 25.0901 10.4132C24.953 10.8645 24.8199 11.3118 24.7013 11.7103V11.7103Z" fill="white"></path>
    <path d="M6.26073 11.3279C5.73837 10.9593 5.26442 10.6345 4.81177 10.335L4.52972 10.1484L4.68656 10.6688C4.83092 11.1478 4.98022 11.6434 5.12329 12.1315L5.13534 12.1728L5.17105 12.1973C5.61725 12.504 6.09056 12.8397 6.57612 13.1952L6.85925 13.4026L6.29623 11.3529L6.26073 11.3279ZM5.34596 12.0229C5.21903 11.5897 5.08779 11.1516 4.95871 10.7248C5.31326 10.9631 5.68416 11.2187 6.08324 11.5L6.43886 12.7948C6.06323 12.5228 5.69707 12.264 5.34596 12.0229V12.0229Z" fill="white"></path>
    <path d="M5.75281 16.093L5.87544 16.8649C12.0706 15.738 18.4212 15.738 24.6164 16.8649C24.6575 16.6076 24.6985 16.3503 24.7392 16.093C18.463 14.9513 12.0291 14.9513 5.75281 16.093V16.093Z" fill="white"></path>
    <path d="M29.9092 5.12226C29.3212 5.37017 28.7403 5.62625 28.1666 5.89049C28.1785 6.34954 28.1886 6.80845 28.1967 7.26722C27.4506 7.63419 25.7973 8.35833 23.9656 8.62179C23.3535 7.76176 22.6285 6.54265 22.181 5.10756C22.521 4.69196 22.8663 4.27934 23.2171 3.8697C22.9323 3.31722 22.6399 2.76666 22.34 2.21801C21.9409 2.68885 21.549 3.16345 21.1643 3.64181C21.4351 4.13139 21.6998 4.62267 21.9586 5.11565L21.9571 5.11842C21.6415 5.65685 20.8315 6.91579 19.5906 7.97411C18.2601 7.29107 16.9319 6.05087 15.6699 3.93168C16.035 3.38985 16.4084 2.85135 16.7899 2.3162C16.2854 1.53796 15.7645 0.765889 15.2271 0C14.6898 0.766741 14.1691 1.53909 13.665 2.31705C14.0646 2.87663 14.4551 3.4399 14.8366 4.00686C13.7179 6.10262 12.4983 7.35198 11.2438 8.05355C9.88995 6.92751 9.02789 5.54034 8.73831 5.02769V5.02641C8.9939 4.54365 9.25536 4.06231 9.52271 3.58239C9.13804 3.10303 8.74699 2.62694 8.34956 2.15412C8.04836 2.70177 7.75434 3.25141 7.46749 3.80304C7.83193 4.23113 8.1905 4.66221 8.54318 5.09627C8.06751 6.5976 7.2857 7.86101 6.65233 8.72126C4.77546 8.41115 3.0565 7.63972 2.29362 7.25955C2.30179 6.80305 2.31183 6.34649 2.32374 5.88985C1.75004 5.62561 1.16916 5.36953 0.581116 5.12162C1.16457 5.97015 1.73282 6.82591 2.28587 7.68892C3.80719 10.1203 5.21276 12.6 6.50259 15.1278C12.2909 14.1651 18.2009 14.1651 23.9893 15.1278C25.3478 12.4679 26.8352 9.86086 28.4515 7.30662V7.30555C28.9268 6.57332 29.4127 5.84555 29.9092 5.12226ZM5.48542 11.8038C5.32299 11.25 5.15561 10.6963 4.98845 10.1425C5.47832 10.4664 5.95872 10.7976 6.43439 11.1333C6.58728 11.6905 6.74032 12.2476 6.8935 12.8048C6.43203 12.4659 5.96152 12.1301 5.48542 11.8038ZM10.0724 10.8715C9.96482 10.3817 9.85574 9.8948 9.74753 9.40515C9.81809 9.39577 9.88887 9.38896 9.96267 9.38385C10.337 9.67755 10.7045 9.97828 11.0693 10.2814C11.1825 10.8476 11.2948 11.4156 11.4062 11.9852C10.9697 11.6102 10.5246 11.2372 10.0724 10.8715ZM15.2435 13.1211C14.9375 12.2074 14.6165 11.2967 14.2805 10.3889C14.589 9.47053 14.91 8.5547 15.2435 7.64143C15.5804 8.55513 15.9022 9.47096 16.209 10.3889C15.8724 11.2981 15.5505 12.2087 15.2435 13.1209V13.1211ZM20.4169 10.8715C19.9651 11.2374 19.5198 11.6104 19.083 11.9859C19.1938 11.4171 19.3061 10.8491 19.4199 10.282C19.7857 9.97892 20.1514 9.67819 20.5266 9.38449C20.5996 9.38917 20.6703 9.39599 20.7418 9.40578C20.634 9.89458 20.5264 10.3817 20.4169 10.8715ZM25.0512 11.4915C24.5732 11.8181 24.1022 12.1518 23.6384 12.4926C23.789 11.9354 23.9445 11.3782 24.0999 10.8211C24.5755 10.4854 25.0583 10.1544 25.5503 9.8326C25.3808 10.384 25.2164 10.9365 25.0512 11.4913V11.4915Z" fill="white"></path>
    <path d="M45.968 31.368H48.398C48.902 30.738 49.298 29.82 49.586 28.614C49.892 27.408 50.045 26.211 50.045 25.023C50.045 22.197 49.514 20.136 48.452 18.84H45.968V31.368ZM42.296 34.5V15.6H50.126C52.682 17.868 53.96 20.946 53.96 24.834C53.96 28.704 52.763 31.926 50.369 34.5H42.296ZM57.6797 34.5V15.6H67.3727V18.84H61.3787V23.349H66.7247V26.481H61.3787V31.368H67.4807V34.5H57.6797ZM71.1913 34.5V15.6H81.0463V18.84H74.8903V23.565H80.2363V26.697H74.8903V34.5H71.1913ZM84.2283 34.5V15.6H87.9273V34.5H84.2283ZM92.15 34.5V15.6H95.849V23.565H95.984L99.359 15.6H103.166L99.224 24.618L103.355 34.5H99.251L96.038 26.238H95.849V34.5H92.15ZM106.268 34.5V15.6H109.967V34.5H106.268ZM122.614 34.5L117.565 24.051L117.43 24.105L117.592 27.291V34.5H114.19V15.6H116.917L121.885 26.454L122.02 26.4L121.723 23.079V15.6H125.125V34.5H122.614ZM138.3 34.5H132.576C131.28 33.312 130.335 31.899 129.741 30.261C129.147 28.623 128.85 26.913 128.85 25.131C128.85 23.331 129.21 21.558 129.93 19.812C130.65 18.066 131.658 16.662 132.954 15.6H139.515V18.84H134.493C134.025 19.38 133.62 20.235 133.278 21.405C132.936 22.557 132.765 23.79 132.765 25.104C132.765 26.4 132.918 27.642 133.224 28.83C133.548 30 133.944 30.846 134.412 31.368H137.004V24.024H140.568V28.56C140.568 31.044 139.812 33.024 138.3 34.5ZM146.026 15.6H152.506V18.84H147.322L147.241 19.002L151.561 26.886C152.443 28.47 152.884 29.676 152.884 30.504C152.884 32.322 152.281 33.654 151.075 34.5H143.92V31.368H149.509L149.59 31.206L144.73 22.485C144.028 21.225 143.677 20.199 143.677 19.407C143.677 17.535 144.46 16.266 146.026 15.6Z" fill="white"></path>
</svg>